<svg xmlns="http://www.w3.org/2000/svg" width="1200" height="630" viewBox="0 0 1200 630">
  <defs>
    <linearGradient id="bg" x1="0%" y1="0%" x2="100%" y2="100%">
      <stop offset="0%" style="stop-color:#1e293b;stop-opacity:1" />
      <stop offset="100%" style="stop-color:#0f172a;stop-opacity:1" />
    </linearGradient>
    <linearGradient id="accent" x1="0%" y1="0%" x2="100%" y2="0%">
      <stop offset="0%" style="stop-color:#4281A4;stop-opacity:1" />
      <stop offset="100%" style="stop-color:#48A9A6;stop-opacity:1" />
    </linearGradient>
  </defs>

  <!-- Background -->
  <rect width="1200" height="630" fill="url(#bg)" rx="0" />

  <!-- Subtle grid pattern -->
  <g opacity="0.05">
    <line x1="0" y1="0" x2="0" y2="630" stroke="white" stroke-width="1" />
    <line x1="100" y1="0" x2="100" y2="630" stroke="white" stroke-width="1" />
    <line x1="200" y1="0" x2="200" y2="630" stroke="white" stroke-width="1" />
    <line x1="300" y1="0" x2="300" y2="630" stroke="white" stroke-width="1" />
    <line x1="400" y1="0" x2="400" y2="630" stroke="white" stroke-width="1" />
    <line x1="500" y1="0" x2="500" y2="630" stroke="white" stroke-width="1" />
    <line x1="600" y1="0" x2="600" y2="630" stroke="white" stroke-width="1" />
    <line x1="700" y1="0" x2="700" y2="630" stroke="white" stroke-width="1" />
    <line x1="800" y1="0" x2="800" y2="630" stroke="white" stroke-width="1" />
    <line x1="900" y1="0" x2="900" y2="630" stroke="white" stroke-width="1" />
    <line x1="1000" y1="0" x2="1000" y2="630" stroke="white" stroke-width="1" />
    <line x1="1100" y1="0" x2="1100" y2="630" stroke="white" stroke-width="1" />
    <line x1="1200" y1="0" x2="1200" y2="630" stroke="white" stroke-width="1" />
    <line x1="0" y1="0" x2="1200" y2="0" stroke="white" stroke-width="1" />
    <line x1="0" y1="100" x2="1200" y2="100" stroke="white" stroke-width="1" />
    <line x1="0" y1="200" x2="1200" y2="200" stroke="white" stroke-width="1" />
    <line x1="0" y1="300" x2="1200" y2="300" stroke="white" stroke-width="1" />
    <line x1="0" y1="400" x2="1200" y2="400" stroke="white" stroke-width="1" />
    <line x1="0" y1="500" x2="1200" y2="500" stroke="white" stroke-width="1" />
    <line x1="0" y1="630" x2="1200" y2="630" stroke="white" stroke-width="1" />
  </g>

  <!-- Accent bar at top -->
  <rect x="0" y="0" width="1200" height="4" fill="url(#accent)" />

  <!-- Logo text -->
  <text x="80" y="120" font-family="system-ui, -apple-system, sans-serif" font-size="36" font-weight="700" fill="white" letter-spacing="-0.5">tomdnow</text>

  <!-- Tagline -->
  <text x="80" y="280" font-family="system-ui, -apple-system, sans-serif" font-size="56" font-weight="700" fill="white" letter-spacing="-1">Convert Any File</text>
  <text x="80" y="350" font-family="system-ui, -apple-system, sans-serif" font-size="56" font-weight="700" fill="white" letter-spacing="-1">to Markdown</text>

  <!-- Subtitle -->
  <text x="80" y="410" font-family="system-ui, -apple-system, sans-serif" font-size="24" fill="#94a3b8">Free, Fast, Private</text>

  <!-- Format tags -->
  <g transform="translate(80, 460)">
    <rect x="0" y="0" width="70" height="36" rx="8" fill="#36698a" opacity="0.3" />
    <text x="35" y="24" font-family="system-ui, -apple-system, sans-serif" font-size="16" font-weight="600" fill="#a8d4e0" text-anchor="middle">PDF</text>

    <rect x="82" y="0" width="90" height="36" rx="8" fill="#36698a" opacity="0.3" />
    <text x="127" y="24" font-family="system-ui, -apple-system, sans-serif" font-size="16" font-weight="600" fill="#a8d4e0" text-anchor="middle">DOCX</text>

    <rect x="184" y="0" width="76" height="36" rx="8" fill="#36698a" opacity="0.3" />
    <text x="222" y="24" font-family="system-ui, -apple-system, sans-serif" font-size="16" font-weight="600" fill="#a8d4e0" text-anchor="middle">HWP</text>

    <rect x="272" y="0" width="86" height="36" rx="8" fill="#36698a" opacity="0.3" />
    <text x="315" y="24" font-family="system-ui, -apple-system, sans-serif" font-size="16" font-weight="600" fill="#a8d4e0" text-anchor="middle">Excel</text>

    <rect x="370" y="0" width="76" height="36" rx="8" fill="#36698a" opacity="0.3" />
    <text x="408" y="24" font-family="system-ui, -apple-system, sans-serif" font-size="16" font-weight="600" fill="#a8d4e0" text-anchor="middle">PPTX</text>

    <rect x="458" y="0" width="86" height="36" rx="8" fill="#36698a" opacity="0.3" />
    <text x="501" y="24" font-family="system-ui, -apple-system, sans-serif" font-size="16" font-weight="600" fill="#a8d4e0" text-anchor="middle">EPUB</text>

    <rect x="556" y="0" width="100" height="36" rx="8" fill="#36698a" opacity="0.3" />
    <text x="606" y="24" font-family="system-ui, -apple-system, sans-serif" font-size="16" font-weight="600" fill="#a8d4e0" text-anchor="middle">+15 more</text>
  </g>

  <!-- Decorative markdown symbol on right -->
  <text x="1000" y="340" font-family="monospace" font-size="220" font-weight="700" fill="white" opacity="0.04" text-anchor="middle">#</text>
  <text x="1050" y="280" font-family="monospace" font-size="120" font-weight="700" fill="url(#accent)" opacity="0.15" text-anchor="middle">MD</text>

  <!-- Bottom bar -->
  <rect x="0" y="580" width="1200" height="50" fill="#0f172a" opacity="0.5" />
  <text x="80" y="612" font-family="system-ui, -apple-system, sans-serif" font-size="16" fill="#64748b">tomdnow.com</text>
  <text x="1120" y="612" font-family="system-ui, -apple-system, sans-serif" font-size="16" fill="#64748b" text-anchor="end">21+ Formats | 8 Languages | 100% Free</text>
</svg>
